<svg xmlns="http://www.w3.org/2000/svg" viewBox="0 0 64 64">
  <defs>
    <linearGradient id="g" x1="0" y1="0" x2="1" y2="1">
      <stop offset="0" stop-color="#1f9d5b"/>
      <stop offset="1" stop-color="#198754"/>
    </linearGradient>
  </defs>
  <rect x="4" y="4" width="56" height="56" rx="14" fill="url(#g)"/>
  <path
    d="M46 20c-6.4 0-12.7 2.8-17 7.1-4.5 4.5-7.4 10.8-7.4 17 0 1.8.2 3.3.6 4.7 1.4-4.8 4-9.2 7.7-12.8 5.5-5.5 12.8-8.5 20.1-8.6-1.2-4.6-4.7-7.4-4-7.4z"
    fill="#ffffff"
    opacity="0.95"
  />
  <path
    d="M26 46c4.8-1.4 9.2-4 12.8-7.7 3.6-3.6 6.3-8 7.7-12.8-6.7.4-13.2 3.4-18.2 8.4-5 5-8 11.5-8.4 18.1 1.4-.4 2.9-.8 4.1-1z"
    fill="#e8fff2"
  />
</svg>

